<mxfile host="app.diagrams.net" modified="2022-01-12T12:40:26.746Z" agent="5.0 (Windows NT 10.0; Win64; x64) AppleWebKit/537.36 (KHTML, like Gecko) Chrome/97.0.4692.71 Safari/537.36" etag="CcQh86q3rRt2NyIcEiJi" version="16.2.4" type="github">
  <diagram id="H7_tCYUHHZJKz_Q6d8IM" name="第 1 页">
    <mxGraphModel dx="1656" dy="-119" grid="0" gridSize="10" guides="1" tooltips="1" connect="1" arrows="1" fold="1" page="0" pageScale="1" pageWidth="827" pageHeight="1169" background="none" math="0" shadow="0">
      <root>
        <mxCell id="0" />
        <mxCell id="1" parent="0" />
        <mxCell id="LN4RIfl6_Ic5JrLGgOFw-55" value="" style="whiteSpace=wrap;html=1;fontSize=18;fontStyle=1;strokeWidth=2;fillColor=#F2F2F2;strokeColor=#D9D9D9;" parent="1" vertex="1">
          <mxGeometry x="80.5" y="1965" width="1090.5" height="224" as="geometry" />
        </mxCell>
        <mxCell id="LN4RIfl6_Ic5JrLGgOFw-67" value="" style="whiteSpace=wrap;html=1;strokeColor=none;dashed=1;verticalAlign=top;spacingTop=0;fillColor=#FFE5DB;fontSize=16;" parent="1" vertex="1">
          <mxGeometry x="304.5" y="1975" width="855" height="70" as="geometry" />
        </mxCell>
        <mxCell id="LN4RIfl6_Ic5JrLGgOFw-57" value="" style="whiteSpace=wrap;html=1;strokeColor=none;dashed=1;verticalAlign=top;spacingTop=0;fillColor=#FFE5DB;fontSize=16;" parent="1" vertex="1">
          <mxGeometry x="304.5" y="2055" width="855" height="120" as="geometry" />
        </mxCell>
        <mxCell id="LN4RIfl6_Ic5JrLGgOFw-49" value="" style="whiteSpace=wrap;html=1;fontSize=18;fontStyle=1;strokeWidth=2;fillColor=#F2F2F2;strokeColor=#D9D9D9;" parent="1" vertex="1">
          <mxGeometry x="80.5" y="1150" width="1090" height="80" as="geometry" />
        </mxCell>
        <mxCell id="LN4RIfl6_Ic5JrLGgOFw-50" value="网关" style="whiteSpace=wrap;html=1;fillColor=none;strokeColor=none;fontStyle=1;fontSize=18;fontColor=#E66B0F;" parent="1" vertex="1">
          <mxGeometry x="85.5" y="1170" width="120" height="40" as="geometry" />
        </mxCell>
        <mxCell id="LN4RIfl6_Ic5JrLGgOFw-40" value="" style="whiteSpace=wrap;html=1;fontSize=18;fontStyle=1;strokeWidth=2;fillColor=#F2F2F2;strokeColor=#D9D9D9;" parent="1" vertex="1">
          <mxGeometry x="80.5" y="1237" width="861.5" height="493" as="geometry" />
        </mxCell>
        <mxCell id="LN4RIfl6_Ic5JrLGgOFw-44" value="" style="whiteSpace=wrap;html=1;align=center;verticalAlign=top;fontSize=16;fontStyle=1;fillColor=#FFE5DB;strokeColor=none;fontColor=#143642;" parent="1" vertex="1">
          <mxGeometry x="869.75" y="1251" width="59.25" height="471" as="geometry" />
        </mxCell>
        <mxCell id="LN4RIfl6_Ic5JrLGgOFw-43" value="" style="whiteSpace=wrap;html=1;align=center;verticalAlign=top;fontSize=16;fontStyle=1;fillColor=#FFE5DB;strokeColor=none;fontColor=#143642;" parent="1" vertex="1">
          <mxGeometry x="223" y="1513" width="639" height="209" as="geometry" />
        </mxCell>
        <mxCell id="LN4RIfl6_Ic5JrLGgOFw-42" value="" style="whiteSpace=wrap;html=1;align=center;verticalAlign=top;fontSize=16;fontStyle=1;fillColor=#FFE5DB;strokeColor=none;fontColor=#143642;" parent="1" vertex="1">
          <mxGeometry x="223" y="1251" width="639" height="249" as="geometry" />
        </mxCell>
        <mxCell id="LN4RIfl6_Ic5JrLGgOFw-41" value="基础服务&lt;br&gt;组件" style="whiteSpace=wrap;html=1;fontSize=18;fontStyle=1;strokeColor=none;fillColor=none;fontColor=#E66B0F;" parent="1" vertex="1">
          <mxGeometry x="85.5" y="1603" width="120" height="40" as="geometry" />
        </mxCell>
        <mxCell id="ndFSLWlLieNPHFFfm7gC-75" value="" style="whiteSpace=wrap;html=1;fillColor=#FFE5DB;strokeColor=#D9D9D9;fontSize=18;fontStyle=1;fontColor=#143642;strokeWidth=2;" parent="1" vertex="1">
          <mxGeometry x="80.5" y="1737" width="1090" height="80" as="geometry" />
        </mxCell>
        <mxCell id="ndFSLWlLieNPHFFfm7gC-76" value="数据层" style="whiteSpace=wrap;html=1;fillColor=none;strokeColor=none;fontSize=18;fontStyle=1;fontColor=#E66B0F;" parent="1" vertex="1">
          <mxGeometry x="85.5" y="1757" width="120" height="40" as="geometry" />
        </mxCell>
        <mxCell id="ndFSLWlLieNPHFFfm7gC-77" value="MySQL" style="whiteSpace=wrap;html=1;strokeColor=#BB5933;dashed=1;" parent="1" vertex="1">
          <mxGeometry x="237.5" y="1757" width="120" height="40" as="geometry" />
        </mxCell>
        <mxCell id="ndFSLWlLieNPHFFfm7gC-79" value="OSS" style="whiteSpace=wrap;html=1;strokeColor=#BB5933;dashed=1;" parent="1" vertex="1">
          <mxGeometry x="627" y="1757" width="120" height="40" as="geometry" />
        </mxCell>
        <mxCell id="ndFSLWlLieNPHFFfm7gC-81" value="MongoDB" style="whiteSpace=wrap;html=1;strokeColor=#BB5933;dashed=1;" parent="1" vertex="1">
          <mxGeometry x="822" y="1757" width="120" height="40" as="geometry" />
        </mxCell>
        <mxCell id="ndFSLWlLieNPHFFfm7gC-86" value="数据源池化" style="whiteSpace=wrap;html=1;strokeColor=#BB5933;dashed=1;" parent="1" vertex="1">
          <mxGeometry x="245" y="1668" width="100" height="40" as="geometry" />
        </mxCell>
        <mxCell id="ndFSLWlLieNPHFFfm7gC-87" value="数据格式化" style="whiteSpace=wrap;html=1;strokeColor=#BB5933;dashed=1;" parent="1" vertex="1">
          <mxGeometry x="370" y="1668" width="100" height="40" as="geometry" />
        </mxCell>
        <mxCell id="ndFSLWlLieNPHFFfm7gC-88" value="数据缓存" style="whiteSpace=wrap;html=1;strokeColor=#BB5933;dashed=1;" parent="1" vertex="1">
          <mxGeometry x="495" y="1668" width="100" height="40" as="geometry" />
        </mxCell>
        <mxCell id="ndFSLWlLieNPHFFfm7gC-89" value="加/解密工具" style="whiteSpace=wrap;html=1;strokeColor=#BB5933;dashed=1;" parent="1" vertex="1">
          <mxGeometry x="620" y="1668" width="100" height="40" as="geometry" />
        </mxCell>
        <mxCell id="ndFSLWlLieNPHFFfm7gC-90" value="文件处理" style="whiteSpace=wrap;html=1;strokeColor=#BB5933;dashed=1;" parent="1" vertex="1">
          <mxGeometry x="745.5" y="1668" width="100" height="40" as="geometry" />
        </mxCell>
        <mxCell id="ndFSLWlLieNPHFFfm7gC-92" value="消息队列" style="whiteSpace=wrap;html=1;strokeColor=#BB5933;dashed=1;" parent="1" vertex="1">
          <mxGeometry x="245" y="1619" width="100" height="40" as="geometry" />
        </mxCell>
        <mxCell id="ndFSLWlLieNPHFFfm7gC-93" value="分布式锁/事务" style="whiteSpace=wrap;html=1;strokeColor=#BB5933;dashed=1;" parent="1" vertex="1">
          <mxGeometry x="370" y="1619" width="100" height="40" as="geometry" />
        </mxCell>
        <mxCell id="ndFSLWlLieNPHFFfm7gC-94" value="调度管理" style="whiteSpace=wrap;html=1;strokeColor=#BB5933;dashed=1;" parent="1" vertex="1">
          <mxGeometry x="495" y="1619" width="100" height="40" as="geometry" />
        </mxCell>
        <mxCell id="ndFSLWlLieNPHFFfm7gC-95" value="工作流引擎" style="whiteSpace=wrap;html=1;strokeColor=#BB5933;dashed=1;" parent="1" vertex="1">
          <mxGeometry x="245" y="1571" width="100" height="40" as="geometry" />
        </mxCell>
        <mxCell id="ndFSLWlLieNPHFFfm7gC-96" value="搜索引擎" style="whiteSpace=wrap;html=1;strokeColor=#BB5933;dashed=1;" parent="1" vertex="1">
          <mxGeometry x="745.5" y="1571" width="100" height="40" as="geometry" />
        </mxCell>
        <mxCell id="ndFSLWlLieNPHFFfm7gC-97" value="查询引擎" style="whiteSpace=wrap;html=1;strokeColor=#BB5933;dashed=1;" parent="1" vertex="1">
          <mxGeometry x="620" y="1571" width="100" height="40" as="geometry" />
        </mxCell>
        <mxCell id="ndFSLWlLieNPHFFfm7gC-98" value="报表引擎" style="whiteSpace=wrap;html=1;strokeColor=#BB5933;dashed=1;" parent="1" vertex="1">
          <mxGeometry x="495" y="1571" width="100" height="40" as="geometry" />
        </mxCell>
        <mxCell id="ndFSLWlLieNPHFFfm7gC-99" value="规则引擎" style="whiteSpace=wrap;html=1;strokeColor=#BB5933;dashed=1;" parent="1" vertex="1">
          <mxGeometry x="370" y="1571" width="100" height="40" as="geometry" />
        </mxCell>
        <mxCell id="ndFSLWlLieNPHFFfm7gC-100" value="鉴权" style="whiteSpace=wrap;html=1;strokeColor=#BB5933;dashed=1;" parent="1" vertex="1">
          <mxGeometry x="745.5" y="1522" width="100" height="40" as="geometry" />
        </mxCell>
        <mxCell id="ndFSLWlLieNPHFFfm7gC-101" value="日志" style="whiteSpace=wrap;html=1;strokeColor=#BB5933;dashed=1;" parent="1" vertex="1">
          <mxGeometry x="745.5" y="1619" width="100" height="40" as="geometry" />
        </mxCell>
        <mxCell id="ndFSLWlLieNPHFFfm7gC-102" value="用户中心" style="whiteSpace=wrap;html=1;strokeColor=#BB5933;dashed=1;" parent="1" vertex="1">
          <mxGeometry x="245" y="1522" width="100" height="40" as="geometry" />
        </mxCell>
        <mxCell id="ndFSLWlLieNPHFFfm7gC-103" value="部门" style="whiteSpace=wrap;html=1;strokeColor=#BB5933;dashed=1;" parent="1" vertex="1">
          <mxGeometry x="370" y="1522" width="100" height="40" as="geometry" />
        </mxCell>
        <mxCell id="ndFSLWlLieNPHFFfm7gC-104" value="权限" style="whiteSpace=wrap;html=1;strokeColor=#BB5933;dashed=1;" parent="1" vertex="1">
          <mxGeometry x="495" y="1522" width="100" height="40" as="geometry" />
        </mxCell>
        <mxCell id="ndFSLWlLieNPHFFfm7gC-105" value="角色" style="whiteSpace=wrap;html=1;strokeColor=#BB5933;dashed=1;" parent="1" vertex="1">
          <mxGeometry x="620" y="1522" width="100" height="40" as="geometry" />
        </mxCell>
        <mxCell id="ndFSLWlLieNPHFFfm7gC-117" value="认证" style="whiteSpace=wrap;html=1;strokeColor=#BB5933;dashed=1;" parent="1" vertex="1">
          <mxGeometry x="245" y="1175" width="80" height="30" as="geometry" />
        </mxCell>
        <mxCell id="ndFSLWlLieNPHFFfm7gC-118" value="限流" style="whiteSpace=wrap;html=1;strokeColor=#BB5933;dashed=1;" parent="1" vertex="1">
          <mxGeometry x="521" y="1175" width="80" height="30" as="geometry" />
        </mxCell>
        <mxCell id="ndFSLWlLieNPHFFfm7gC-119" value="数据加/解密" style="whiteSpace=wrap;html=1;strokeColor=#BB5933;dashed=1;" parent="1" vertex="1">
          <mxGeometry x="661" y="1175" width="120" height="30" as="geometry" />
        </mxCell>
        <mxCell id="ndFSLWlLieNPHFFfm7gC-120" value="日志采集" style="whiteSpace=wrap;html=1;strokeColor=#BB5933;dashed=1;" parent="1" vertex="1">
          <mxGeometry x="833" y="1175" width="120" height="30" as="geometry" />
        </mxCell>
        <mxCell id="ndFSLWlLieNPHFFfm7gC-121" value="API管理/SDK文档" style="whiteSpace=wrap;html=1;strokeColor=#BB5933;dashed=1;" parent="1" vertex="1">
          <mxGeometry x="1004" y="1175" width="120" height="30" as="geometry" />
        </mxCell>
        <mxCell id="LN4RIfl6_Ic5JrLGgOFw-1" value="消&lt;br&gt;息&lt;br&gt;队&lt;br&gt;列" style="whiteSpace=wrap;html=1;strokeColor=#BB5933;dashed=1;" parent="1" vertex="1">
          <mxGeometry x="879.375" y="1268" width="40" height="440" as="geometry" />
        </mxCell>
        <mxCell id="LN4RIfl6_Ic5JrLGgOFw-3" value="Maven" style="whiteSpace=wrap;html=1;strokeColor=#BB5933;dashed=1;" parent="1" vertex="1">
          <mxGeometry x="370.5" y="2123" width="149" height="40" as="geometry" />
        </mxCell>
        <mxCell id="LN4RIfl6_Ic5JrLGgOFw-4" value="Git" style="whiteSpace=wrap;html=1;strokeColor=#BB5933;dashed=1;" parent="1" vertex="1">
          <mxGeometry x="572.5" y="2123" width="149" height="40" as="geometry" />
        </mxCell>
        <mxCell id="LN4RIfl6_Ic5JrLGgOFw-8" value="Docker" style="whiteSpace=wrap;html=1;strokeColor=#BB5933;dashed=1;" parent="1" vertex="1">
          <mxGeometry x="370.5" y="2073" width="149" height="40" as="geometry" />
        </mxCell>
        <mxCell id="LN4RIfl6_Ic5JrLGgOFw-9" value="Jenkins" style="whiteSpace=wrap;html=1;strokeColor=#BB5933;dashed=1;" parent="1" vertex="1">
          <mxGeometry x="774.5" y="2123" width="149" height="40" as="geometry" />
        </mxCell>
        <mxCell id="LN4RIfl6_Ic5JrLGgOFw-13" value="Kubernetes" style="whiteSpace=wrap;html=1;strokeColor=#BB5933;dashed=1;" parent="1" vertex="1">
          <mxGeometry x="572.5" y="2073" width="149" height="40" as="geometry" />
        </mxCell>
        <mxCell id="LN4RIfl6_Ic5JrLGgOFw-14" value="Jira" style="whiteSpace=wrap;html=1;strokeColor=#BB5933;dashed=1;" parent="1" vertex="1">
          <mxGeometry x="774.5" y="2073" width="149" height="40" as="geometry" />
        </mxCell>
        <mxCell id="LN4RIfl6_Ic5JrLGgOFw-20" value="Redis" style="whiteSpace=wrap;html=1;strokeColor=#BB5933;dashed=1;" parent="1" vertex="1">
          <mxGeometry x="432" y="1757" width="120" height="40" as="geometry" />
        </mxCell>
        <mxCell id="LN4RIfl6_Ic5JrLGgOFw-21" value="Neoo4j" style="whiteSpace=wrap;html=1;strokeColor=#BB5933;dashed=1;" parent="1" vertex="1">
          <mxGeometry x="1017" y="1760" width="120" height="40" as="geometry" />
        </mxCell>
        <mxCell id="LN4RIfl6_Ic5JrLGgOFw-22" value="数据库中间件" style="whiteSpace=wrap;html=1;strokeColor=#BB5933;dashed=1;" parent="1" vertex="1">
          <mxGeometry x="620" y="1619" width="100" height="40" as="geometry" />
        </mxCell>
        <mxCell id="LN4RIfl6_Ic5JrLGgOFw-37" value="" style="group" parent="1" vertex="1" connectable="0">
          <mxGeometry x="456" y="1267" width="178" height="218" as="geometry" />
        </mxCell>
        <mxCell id="LN4RIfl6_Ic5JrLGgOFw-26" value="申报服务" style="whiteSpace=wrap;html=1;strokeColor=#BB5933;dashed=1;verticalAlign=top;spacingBottom=0;spacingTop=10;" parent="LN4RIfl6_Ic5JrLGgOFw-37" vertex="1">
          <mxGeometry width="178" height="218" as="geometry" />
        </mxCell>
        <mxCell id="LN4RIfl6_Ic5JrLGgOFw-27" value="服务1" style="whiteSpace=wrap;html=1;strokeColor=#BB5933;dashed=1;" parent="LN4RIfl6_Ic5JrLGgOFw-37" vertex="1">
          <mxGeometry x="14" y="61" width="150" height="30" as="geometry" />
        </mxCell>
        <mxCell id="LN4RIfl6_Ic5JrLGgOFw-28" value="服务2" style="whiteSpace=wrap;html=1;strokeColor=#BB5933;dashed=1;" parent="LN4RIfl6_Ic5JrLGgOFw-37" vertex="1">
          <mxGeometry x="14" y="97" width="150" height="30" as="geometry" />
        </mxCell>
        <mxCell id="LN4RIfl6_Ic5JrLGgOFw-29" value="......" style="whiteSpace=wrap;html=1;strokeColor=#BB5933;dashed=1;" parent="LN4RIfl6_Ic5JrLGgOFw-37" vertex="1">
          <mxGeometry x="14" y="134" width="150" height="30" as="geometry" />
        </mxCell>
        <mxCell id="LN4RIfl6_Ic5JrLGgOFw-30" value="服务N" style="whiteSpace=wrap;html=1;strokeColor=#BB5933;dashed=1;" parent="LN4RIfl6_Ic5JrLGgOFw-37" vertex="1">
          <mxGeometry x="14" y="170" width="150" height="30" as="geometry" />
        </mxCell>
        <mxCell id="LN4RIfl6_Ic5JrLGgOFw-38" value="" style="group" parent="1" vertex="1" connectable="0">
          <mxGeometry x="667.5" y="1267" width="178" height="218" as="geometry" />
        </mxCell>
        <mxCell id="LN4RIfl6_Ic5JrLGgOFw-31" value="其他业务服务" style="whiteSpace=wrap;html=1;strokeColor=#BB5933;dashed=1;verticalAlign=top;spacingBottom=0;spacingTop=10;" parent="LN4RIfl6_Ic5JrLGgOFw-38" vertex="1">
          <mxGeometry width="178" height="218" as="geometry" />
        </mxCell>
        <mxCell id="LN4RIfl6_Ic5JrLGgOFw-32" value="服务1" style="whiteSpace=wrap;html=1;strokeColor=#BB5933;dashed=1;" parent="LN4RIfl6_Ic5JrLGgOFw-38" vertex="1">
          <mxGeometry x="14" y="61" width="150" height="30" as="geometry" />
        </mxCell>
        <mxCell id="LN4RIfl6_Ic5JrLGgOFw-33" value="服务2" style="whiteSpace=wrap;html=1;strokeColor=#BB5933;dashed=1;" parent="LN4RIfl6_Ic5JrLGgOFw-38" vertex="1">
          <mxGeometry x="14" y="97" width="150" height="30" as="geometry" />
        </mxCell>
        <mxCell id="LN4RIfl6_Ic5JrLGgOFw-34" value="......" style="whiteSpace=wrap;html=1;strokeColor=#BB5933;dashed=1;" parent="LN4RIfl6_Ic5JrLGgOFw-38" vertex="1">
          <mxGeometry x="14" y="134" width="150" height="30" as="geometry" />
        </mxCell>
        <mxCell id="LN4RIfl6_Ic5JrLGgOFw-35" value="服务N" style="whiteSpace=wrap;html=1;strokeColor=#BB5933;dashed=1;" parent="LN4RIfl6_Ic5JrLGgOFw-38" vertex="1">
          <mxGeometry x="14" y="170" width="150" height="30" as="geometry" />
        </mxCell>
        <mxCell id="LN4RIfl6_Ic5JrLGgOFw-39" value="鉴权" style="whiteSpace=wrap;html=1;strokeColor=#BB5933;dashed=1;" parent="1" vertex="1">
          <mxGeometry x="383" y="1175" width="80" height="30" as="geometry" />
        </mxCell>
        <mxCell id="LN4RIfl6_Ic5JrLGgOFw-45" value="业务服务" style="whiteSpace=wrap;html=1;fontSize=18;fontStyle=1;strokeColor=none;fillColor=none;fontColor=#E66B0F;" parent="1" vertex="1">
          <mxGeometry x="85.5" y="1338" width="120" height="40" as="geometry" />
        </mxCell>
        <mxCell id="LN4RIfl6_Ic5JrLGgOFw-46" value="" style="whiteSpace=wrap;html=1;fontSize=18;fontStyle=1;strokeWidth=2;fillColor=#F2F2F2;strokeColor=#D9D9D9;" parent="1" vertex="1">
          <mxGeometry x="958" y="1237" width="212.5" height="493" as="geometry" />
        </mxCell>
        <mxCell id="LN4RIfl6_Ic5JrLGgOFw-47" value="" style="group" parent="1" vertex="1" connectable="0">
          <mxGeometry x="245" y="1267" width="178" height="218" as="geometry" />
        </mxCell>
        <mxCell id="LN4RIfl6_Ic5JrLGgOFw-24" value="发票服务" style="whiteSpace=wrap;html=1;strokeColor=#BB5933;dashed=1;verticalAlign=top;spacingBottom=0;spacingTop=10;" parent="LN4RIfl6_Ic5JrLGgOFw-47" vertex="1">
          <mxGeometry width="178" height="218" as="geometry" />
        </mxCell>
        <mxCell id="ndFSLWlLieNPHFFfm7gC-106" value="服务1" style="whiteSpace=wrap;html=1;strokeColor=#BB5933;dashed=1;" parent="LN4RIfl6_Ic5JrLGgOFw-47" vertex="1">
          <mxGeometry x="14" y="61" width="150" height="30" as="geometry" />
        </mxCell>
        <mxCell id="ndFSLWlLieNPHFFfm7gC-108" value="服务2" style="whiteSpace=wrap;html=1;strokeColor=#BB5933;dashed=1;" parent="LN4RIfl6_Ic5JrLGgOFw-47" vertex="1">
          <mxGeometry x="14" y="97" width="150" height="30" as="geometry" />
        </mxCell>
        <mxCell id="ndFSLWlLieNPHFFfm7gC-110" value="......" style="whiteSpace=wrap;html=1;strokeColor=#BB5933;dashed=1;" parent="LN4RIfl6_Ic5JrLGgOFw-47" vertex="1">
          <mxGeometry x="14" y="134" width="150" height="30" as="geometry" />
        </mxCell>
        <mxCell id="LN4RIfl6_Ic5JrLGgOFw-25" value="服务N" style="whiteSpace=wrap;html=1;strokeColor=#BB5933;dashed=1;" parent="LN4RIfl6_Ic5JrLGgOFw-47" vertex="1">
          <mxGeometry x="14" y="170" width="150" height="30" as="geometry" />
        </mxCell>
        <mxCell id="LN4RIfl6_Ic5JrLGgOFw-48" value="" style="group" parent="1" vertex="1" connectable="0">
          <mxGeometry x="973.25" y="1251" width="182" height="470" as="geometry" />
        </mxCell>
        <mxCell id="LN4RIfl6_Ic5JrLGgOFw-2" value="&lt;b style=&quot;font-size: 16px;&quot;&gt;&lt;font style=&quot;font-size: 16px;&quot;&gt;服务治理&lt;/font&gt;&lt;/b&gt;" style="whiteSpace=wrap;html=1;strokeColor=none;dashed=1;verticalAlign=top;spacingTop=10;fillColor=#FFE5DB;fontSize=16;" parent="LN4RIfl6_Ic5JrLGgOFw-48" vertex="1">
          <mxGeometry width="182" height="470" as="geometry" />
        </mxCell>
        <mxCell id="LN4RIfl6_Ic5JrLGgOFw-5" value="调用链路跟踪" style="whiteSpace=wrap;html=1;strokeColor=#BB5933;dashed=1;" parent="LN4RIfl6_Ic5JrLGgOFw-48" vertex="1">
          <mxGeometry x="16.5" y="189" width="149" height="40" as="geometry" />
        </mxCell>
        <mxCell id="LN4RIfl6_Ic5JrLGgOFw-6" value="日志中心" style="whiteSpace=wrap;html=1;strokeColor=#BB5933;dashed=1;" parent="LN4RIfl6_Ic5JrLGgOFw-48" vertex="1">
          <mxGeometry x="16.5" y="243" width="149" height="40" as="geometry" />
        </mxCell>
        <mxCell id="LN4RIfl6_Ic5JrLGgOFw-7" value="集群负载监控预警" style="whiteSpace=wrap;html=1;strokeColor=#BB5933;dashed=1;" parent="LN4RIfl6_Ic5JrLGgOFw-48" vertex="1">
          <mxGeometry x="16.5" y="406" width="149" height="40" as="geometry" />
        </mxCell>
        <mxCell id="LN4RIfl6_Ic5JrLGgOFw-10" value="流量监控&lt;br&gt;限流/熔断/降级" style="whiteSpace=wrap;html=1;strokeColor=#BB5933;dashed=1;" parent="LN4RIfl6_Ic5JrLGgOFw-48" vertex="1">
          <mxGeometry x="16.5" y="352" width="149" height="40" as="geometry" />
        </mxCell>
        <mxCell id="LN4RIfl6_Ic5JrLGgOFw-11" value="配置中心" style="whiteSpace=wrap;html=1;strokeColor=#BB5933;dashed=1;" parent="LN4RIfl6_Ic5JrLGgOFw-48" vertex="1">
          <mxGeometry x="16.5" y="134" width="149" height="40" as="geometry" />
        </mxCell>
        <mxCell id="LN4RIfl6_Ic5JrLGgOFw-12" value="注册中心" style="whiteSpace=wrap;html=1;strokeColor=#BB5933;dashed=1;" parent="LN4RIfl6_Ic5JrLGgOFw-48" vertex="1">
          <mxGeometry x="16.5" y="80" width="149" height="40" as="geometry" />
        </mxCell>
        <mxCell id="LN4RIfl6_Ic5JrLGgOFw-16" value="服务依赖拓扑" style="whiteSpace=wrap;html=1;strokeColor=#BB5933;dashed=1;" parent="LN4RIfl6_Ic5JrLGgOFw-48" vertex="1">
          <mxGeometry x="16.5" y="297" width="149" height="40" as="geometry" />
        </mxCell>
        <mxCell id="LN4RIfl6_Ic5JrLGgOFw-51" value="Wiki" style="whiteSpace=wrap;html=1;strokeColor=#BB5933;dashed=1;" parent="1" vertex="1">
          <mxGeometry x="976.5" y="2073" width="149" height="40" as="geometry" />
        </mxCell>
        <mxCell id="LN4RIfl6_Ic5JrLGgOFw-52" value="持续集成" style="whiteSpace=wrap;html=1;strokeColor=#BB5933;dashed=1;" parent="1" vertex="1">
          <mxGeometry x="389.5" y="1990" width="200" height="40" as="geometry" />
        </mxCell>
        <mxCell id="LN4RIfl6_Ic5JrLGgOFw-53" value="持续交付" style="whiteSpace=wrap;html=1;strokeColor=#BB5933;dashed=1;" parent="1" vertex="1">
          <mxGeometry x="652.5" y="1990" width="200" height="40" as="geometry" />
        </mxCell>
        <mxCell id="LN4RIfl6_Ic5JrLGgOFw-54" value="持续部署" style="whiteSpace=wrap;html=1;strokeColor=#BB5933;dashed=1;" parent="1" vertex="1">
          <mxGeometry x="914.5" y="1990" width="200" height="40" as="geometry" />
        </mxCell>
        <mxCell id="LN4RIfl6_Ic5JrLGgOFw-65" value="Selenium" style="whiteSpace=wrap;html=1;strokeColor=#BB5933;dashed=1;" parent="1" vertex="1">
          <mxGeometry x="976.5" y="2123" width="149" height="40" as="geometry" />
        </mxCell>
        <mxCell id="LN4RIfl6_Ic5JrLGgOFw-68" value="运 维" style="whiteSpace=wrap;html=1;fillColor=none;strokeColor=none;fontSize=18;fontStyle=1;fontColor=#E66B0F;" parent="1" vertex="1">
          <mxGeometry x="85.5" y="1982" width="120" height="40" as="geometry" />
        </mxCell>
      </root>
    </mxGraphModel>
  </diagram>
</mxfile>
